kern_example_rtl.ufo
<glyph name="i" format="2">
	<unicode hex="0069"/>
	<advance width="209"/>
	<outline>
		<contour>
			<point x="81" y="0" type="line"/>
			<point x="128" y="0" type="line"/>
			<point x="128" y="480" type="line"/>
			<point x="81" y="480" type="line"/>
		</contour>
		<contour>
			<point x="103" y="576" type="curve" smooth="yes"/>
			<point x="128" y="576"/>
			<point x="143" y="595"/>
			<point x="143" y="617" type="curve" smooth="yes"/>
			<point x="143" y="640"/>
			<point x="127" y="659"/>
			<point x="105" y="659" type="curve" smooth="yes"/>
			<point x="83" y="659"/>
			<point x="66" y="639"/>
			<point x="66" y="617" type="curve" smooth="yes"/>
			<point x="66" y="595"/>
			<point x="81" y="576"/>
		</contour>
	</outline>
	<anchor name="aboveLC" x="104" y="679"/>
	<anchor name="belowLC" x="104" y="-30"/>
	<anchor name="baseLC" x="96" y="0"/>
</glyph>
<glyph name="imacron" format="2">
	<unicode hex="012B"/>
	<advance width="209"/>
	<outline>
		<contour>
			<point x="-7" y="592" type="line"/>
			<point x="218" y="592" type="line"/>
			<point x="218" y="632" type="line"/>
			<point x="-7" y="632" type="line"/>
		</contour>
		<component base="dotlessi"/>
	</outline>
</glyph>
<glyph name="F" format="2">
	<advance width="461"/>
	<outline>
		<contour>
			<point x="81" y="0" type="line"/>
			<point x="129" y="0" type="line"/>
			<point x="129" y="326" type="line"/>
			<point x="391" y="326" type="line"/>
			<point x="391" y="366" type="line"/>
			<point x="129" y="366" type="line"/>
			<point x="129" y="634" type="line"/>
			<point x="414" y="634" type="line"/>
			<point x="414" y="674" type="line"/>
			<point x="81" y="674" type="line"/>
		</contour>
	</outline>
	<anchor name="aboveUC" x="251" y="694"/>
	<anchor name="belowLC" x="106" y="-30"/>
	<anchor name="baseLC" x="95" y="0"/>
</glyph>
<glyph name="arAlef" format="2">
	<advance width="231"/>
	<outline>
		<contour>
			<point x="95" y="0" type="line"/>
			<point x="142" y="0" type="line"/>
			<point x="114" y="721" type="line"/>
			<point x="69" y="717" type="line"/>
		</contour>
	</outline>
	<anchor name="aboveAR" x="85" y="820"/>
	<anchor name="belowAR" x="125" y="-180"/>
	<anchor name="belowARCXT-YEHBREE" x="125" y="-360"/>
</glyph>
<glyph name="arAlefMadda" format="2">
	<advance width="231"/>
	<outline>
		<contour>
			<point x="132" y="816" type="curve" smooth="yes"/>
			<point x="168" y="816"/>
			<point x="200" y="827"/>
			<point x="215" y="854" type="curve"/>
			<point x="208" y="889" type="line"/>
			<point x="181" y="864"/>
			<point x="162" y="857"/>
			<point x="141" y="857" type="curve" smooth="yes"/>
			<point x="101" y="857"/>
			<point x="64" y="884"/>
			<point x="18" y="884" type="curve" smooth="yes"/>
			<point x="-32" y="884"/>
			<point x="-53" y="848"/>
			<point x="-55" y="806" type="curve"/>
			<point x="-21" y="795" type="line"/>
			<point x="-14" y="838"/>
			<point x="5" y="843"/>
			<point x="15" y="843" type="curve" smooth="yes"/>
			<point x="48" y="843"/>
			<point x="88" y="816"/>
		</contour>
		<component base="arAlef"/>
	</outline>
	<anchor name="aboveAR" x="80" y="915"/>
	<anchor name="belowAR" x="125" y="-180"/>
	<anchor name="belowARCXT-YEHBREE" x="125" y="-360"/>
</glyph>
<glyph name="arBeh.i" format="2">
	<advance width="271"/>
	<outline>
		<contour>
			<point x="0" y="0" type="curve" smooth="yes"/>
			<point x="19" y="0" type="line" smooth="yes"/>
			<point x="136" y="0"/>
			<point x="173" y="21"/>
			<point x="201" y="46" type="curve"/>
			<point x="206" y="63"/>
			<point x="207" y="83"/>
			<point x="207" y="103" type="curve" smooth="yes"/>
			<point x="207" y="206"/>
			<point x="161" y="324"/>
			<point x="138" y="367" type="curve"/>
			<point x="94" y="344" type="line"/>
			<point x="129" y="283"/>
			<point x="164" y="204"/>
			<point x="168" y="101" type="curve" smooth="yes"/>
			<point x="168" y="93"/>
			<point x="168" y="84"/>
			<point x="167" y="76" type="curve"/>
			<point x="140" y="59"/>
			<point x="94" y="50"/>
			<point x="14" y="50" type="curve" smooth="yes"/>
			<point x="0" y="50" type="line" smooth="yes"/>
			<point x="-23" y="50"/>
			<point x="-30" y="36"/>
			<point x="-30" y="26" type="curve" smooth="yes"/>
			<point x="-30" y="13"/>
			<point x="-23" y="0"/>
		</contour>
		<contour>
			<point x="126" y="-150" type="curve" smooth="yes"/>
			<point x="102" y="-150"/>
			<point x="86" y="-168"/>
			<point x="86" y="-191" type="curve" smooth="yes"/>
			<point x="86" y="-217"/>
			<point x="102" y="-234"/>
			<point x="125" y="-234" type="curve" smooth="yes"/>
			<point x="149" y="-234"/>
			<point x="165" y="-217"/>
			<point x="165" y="-191" type="curve" smooth="yes"/>
			<point x="165" y="-168"/>
			<point x="149" y="-150"/>
		</contour>
	</outline>
	<anchor name="aboveAR" x="70" y="565"/>
	<anchor name="belowAR" x="130" y="-315"/>
</glyph>
<glyph name="arColon" format="2">
	<advance width="306"/>
	<outline>
		<contour>
			<point x="89" y="55" type="curve" smooth="yes"/>
			<point x="89" y="18"/>
			<point x="117" y="-12"/>
			<point x="151" y="-12" type="curve" smooth="yes"/>
			<point x="191" y="-12"/>
			<point x="216" y="18"/>
			<point x="216" y="55" type="curve" smooth="yes"/>
			<point x="216" y="93"/>
			<point x="191" y="122"/>
			<point x="153" y="122" type="curve" smooth="yes"/>
			<point x="119" y="122"/>
			<point x="89" y="94"/>
		</contour>
		<contour>
			<point x="151" y="289" type="curve" smooth="yes"/>
			<point x="191" y="289"/>
			<point x="216" y="319"/>
			<point x="216" y="356" type="curve" smooth="yes"/>
			<point x="216" y="394"/>
			<point x="191" y="423"/>
			<point x="153" y="423" type="curve" smooth="yes"/>
			<point x="119" y="423"/>
			<point x="89" y="395"/>
			<point x="89" y="356" type="curve" smooth="yes"/>
			<point x="89" y="319"/>
			<point x="117" y="289"/>
		</contour>
	</outline>
</glyph>
<glyph name="arE.i" format="2">
	<advance width="271"/>
	<outline>
		<contour>
			<point x="0" y="0" type="curve" smooth="yes"/>
			<point x="19" y="0" type="line" smooth="yes"/>
			<point x="136" y="0"/>
			<point x="173" y="21"/>
			<point x="201" y="46" type="curve"/>
			<point x="206" y="63"/>
			<point x="207" y="83"/>
			<point x="207" y="103" type="curve" smooth="yes"/>
			<point x="207" y="206"/>
			<point x="161" y="324"/>
			<point x="138" y="367" type="curve"/>
			<point x="94" y="344" type="line"/>
			<point x="129" y="283"/>
			<point x="164" y="204"/>
			<point x="168" y="101" type="curve" smooth="yes"/>
			<point x="168" y="93"/>
			<point x="168" y="84"/>
			<point x="167" y="76" type="curve"/>
			<point x="140" y="59"/>
			<point x="94" y="50"/>
			<point x="14" y="50" type="curve" smooth="yes"/>
			<point x="0" y="50" type="line" smooth="yes"/>
			<point x="-23" y="50"/>
			<point x="-30" y="36"/>
			<point x="-30" y="26" type="curve" smooth="yes"/>
			<point x="-30" y="13"/>
			<point x="-23" y="0"/>
		</contour>
		<contour>
			<point x="125" y="-250" type="curve" smooth="yes"/>
			<point x="102" y="-250"/>
			<point x="85" y="-269"/>
			<point x="85" y="-293" type="curve" smooth="yes"/>
			<point x="85" y="-317"/>
			<point x="103" y="-334"/>
			<point x="125" y="-334" type="curve" smooth="yes"/>
			<point x="148" y="-334"/>
			<point x="165" y="-317"/>
			<point x="165" y="-293" type="curve" smooth="yes"/>
			<point x="165" y="-269"/>
			<point x="148" y="-250"/>
		</contour>
		<contour>
			<point x="125" y="-135" type="curve" smooth="yes"/>
			<point x="102" y="-135"/>
			<point x="85" y="-153"/>
			<point x="85" y="-177" type="curve" smooth="yes"/>
			<point x="85" y="-202"/>
			<point x="102" y="-219"/>
			<point x="123" y="-219" type="curve" smooth="yes"/>
			<point x="146" y="-219"/>
			<point x="165" y="-202"/>
			<point x="165" y="-177" type="curve" smooth="yes"/>
			<point x="165" y="-153"/>
			<point x="148" y="-135"/>
		</contour>
	</outline>
	<anchor name="aboveAR" x="70" y="565"/>
	<anchor name="belowAR" x="130" y="-355"/>
</glyph>
<glyph name="arHehYeh" format="2">
	<advance width="427"/>
	<outline>
		<contour>
			<point x="216" y="559" type="curve" smooth="yes"/>
			<point x="270" y="559" type="line"/>
			<point x="285" y="596" type="line"/>
			<point x="228" y="596" type="line" smooth="yes"/>
			<point x="176" y="596"/>
			<point x="133" y="618"/>
			<point x="133" y="655" type="curve" smooth="yes"/>
			<point x="133" y="672"/>
			<point x="150" y="695"/>
			<point x="187" y="695" type="curve" smooth="yes"/>
			<point x="216" y="695"/>
			<point x="241" y="685"/>
			<point x="257" y="673" type="curve"/>
			<point x="270" y="707" type="line"/>
			<point x="258" y="719"/>
			<point x="233" y="732"/>
			<point x="194" y="732" type="curve" smooth="yes"/>
			<point x="141" y="732"/>
			<point x="99" y="700"/>
			<point x="99" y="652" type="curve" smooth="yes"/>
			<point x="99" y="618"/>
			<point x="123" y="598"/>
			<point x="136" y="589" type="curve"/>
			<point x="120" y="589"/>
			<point x="96" y="582"/>
			<point x="89" y="578" type="curve"/>
			<point x="83" y="543" type="line"/>
			<point x="123" y="559"/>
			<point x="191" y="559"/>
		</contour>
		<component base="arHeh"/>
	</outline>
	<anchor name="aboveAR" x="175" y="750"/>
	<anchor name="belowAR" x="215" y="-180"/>
	<anchor name="belowARCXT-YEHBREE" x="215" y="-360"/>
</glyph>
<glyph name="arJeh" format="2">
	<advance width="453"/>
	<outline>
		<contour>
			<point x="306" y="490" type="curve" smooth="yes"/>
			<point x="330" y="490"/>
			<point x="344" y="507"/>
			<point x="344" y="533" type="curve" smooth="yes"/>
			<point x="344" y="554"/>
			<point x="330" y="573"/>
			<point x="306" y="573" type="curve" smooth="yes"/>
			<point x="283" y="573"/>
			<point x="267" y="554"/>
			<point x="267" y="533" type="curve" smooth="yes"/>
			<point x="267" y="507"/>
			<point x="283" y="490"/>
		</contour>
		<contour>
			<point x="194" y="490" type="curve" smooth="yes"/>
			<point x="217" y="490"/>
			<point x="234" y="507"/>
			<point x="234" y="533" type="curve" smooth="yes"/>
			<point x="234" y="554"/>
			<point x="217" y="573"/>
			<point x="194" y="573" type="curve" smooth="yes"/>
			<point x="173" y="573"/>
			<point x="156" y="554"/>
			<point x="156" y="533" type="curve" smooth="yes"/>
			<point x="156" y="507"/>
			<point x="171" y="490"/>
		</contour>
		<contour>
			<point x="251" y="594" type="curve" smooth="yes"/>
			<point x="276" y="594"/>
			<point x="291" y="610"/>
			<point x="291" y="635" type="curve" smooth="yes"/>
			<point x="291" y="658"/>
			<point x="276" y="677"/>
			<point x="251" y="677" type="curve" smooth="yes"/>
			<point x="229" y="677"/>
			<point x="214" y="658"/>
			<point x="214" y="635" type="curve" smooth="yes"/>
			<point x="214" y="608"/>
			<point x="229" y="594"/>
		</contour>
		<component base="arReh"/>
	</outline>
	<anchor name="aboveAR" x="240" y="715"/>
	<anchor name="belowAR" x="195" y="-330"/>
</glyph>
<glyph name="arPeh.i" format="2">
	<advance width="271"/>
	<outline>
		<contour>
			<point x="0" y="0" type="curve" smooth="yes"/>
			<point x="19" y="0" type="line" smooth="yes"/>
			<point x="136" y="0"/>
			<point x="173" y="21"/>
			<point x="201" y="46" type="curve"/>
			<point x="206" y="63"/>
			<point x="207" y="83"/>
			<point x="207" y="103" type="curve" smooth="yes"/>
			<point x="207" y="206"/>
			<point x="161" y="324"/>
			<point x="138" y="367" type="curve"/>
			<point x="94" y="344" type="line"/>
			<point x="129" y="283"/>
			<point x="164" y="204"/>
			<point x="168" y="101" type="curve" smooth="yes"/>
			<point x="168" y="93"/>
			<point x="168" y="84"/>
			<point x="167" y="76" type="curve"/>
			<point x="140" y="59"/>
			<point x="94" y="50"/>
			<point x="14" y="50" type="curve" smooth="yes"/>
			<point x="0" y="50" type="line" smooth="yes"/>
			<point x="-23" y="50"/>
			<point x="-30" y="36"/>
			<point x="-30" y="26" type="curve" smooth="yes"/>
			<point x="-30" y="13"/>
			<point x="-23" y="0"/>
		</contour>
		<contour>
			<point x="125" y="-254" type="curve" smooth="yes"/>
			<point x="102" y="-254"/>
			<point x="84" y="-270"/>
			<point x="84" y="-296" type="curve" smooth="yes"/>
			<point x="84" y="-319"/>
			<point x="101" y="-337"/>
			<point x="124" y="-337" type="curve" smooth="yes"/>
			<point x="146" y="-337"/>
			<point x="162" y="-319"/>
			<point x="162" y="-296" type="curve" smooth="yes"/>
			<point x="162" y="-270"/>
			<point x="146" y="-254"/>
		</contour>
		<contour>
			<point x="69" y="-150" type="curve" smooth="yes"/>
			<point x="48" y="-150"/>
			<point x="31" y="-167"/>
			<point x="31" y="-193" type="curve" smooth="yes"/>
			<point x="31" y="-214"/>
			<point x="48" y="-233"/>
			<point x="69" y="-233" type="curve" smooth="yes"/>
			<point x="92" y="-233"/>
			<point x="109" y="-214"/>
			<point x="109" y="-193" type="curve" smooth="yes"/>
			<point x="109" y="-167"/>
			<point x="91" y="-150"/>
		</contour>
		<contour>
			<point x="182" y="-150" type="curve" smooth="yes"/>
			<point x="158" y="-150"/>
			<point x="142" y="-167"/>
			<point x="142" y="-193" type="curve" smooth="yes"/>
			<point x="142" y="-214"/>
			<point x="158" y="-233"/>
			<point x="181" y="-233" type="curve" smooth="yes"/>
			<point x="205" y="-233"/>
			<point x="219" y="-214"/>
			<point x="219" y="-193" type="curve" smooth="yes"/>
			<point x="219" y="-167"/>
			<point x="205" y="-150"/>
		</contour>
	</outline>
	<anchor name="aboveAR" x="70" y="565"/>
	<anchor name="belowAR" x="130" y="-355"/>
</glyph>
<glyph name="arReh" format="2">
	<advance width="453"/>
	<outline>
		<contour>
			<point x="36" y="-138" type="curve"/>
			<point x="24" y="-175" type="line"/>
			<point x="40" y="-192"/>
			<point x="89" y="-218"/>
			<point x="151" y="-218" type="curve" smooth="yes"/>
			<point x="241" y="-218"/>
			<point x="328" y="-153"/>
			<point x="369" y="-46" type="curve" smooth="yes"/>
			<point x="382" y="-13"/>
			<point x="390" y="33"/>
			<point x="390" y="61" type="curve" smooth="yes"/>
			<point x="390" y="170"/>
			<point x="337" y="303"/>
			<point x="310" y="363" type="curve"/>
			<point x="263" y="344" type="line"/>
			<point x="350" y="166"/>
			<point x="350" y="83"/>
			<point x="350" y="48" type="curve" smooth="yes"/>
			<point x="350" y="32"/>
			<point x="338" y="-15"/>
			<point x="320" y="-49" type="curve" smooth="yes"/>
			<point x="266" y="-151"/>
			<point x="189" y="-167"/>
			<point x="149" y="-167" type="curve" smooth="yes"/>
			<point x="113" y="-167"/>
			<point x="80" y="-164"/>
		</contour>
	</outline>
	<anchor name="aboveAR" x="250" y="530"/>
	<anchor name="belowAR" x="195" y="-330"/>
</glyph>
<glyph name="arRreh" format="2">
	<advance width="453"/>
	<outline>
		<contour>
			<point x="207" y="481" type="line" smooth="yes"/>
			<point x="293" y="481"/>
			<point x="384" y="505"/>
			<point x="384" y="588" type="curve" smooth="yes"/>
			<point x="384" y="625"/>
			<point x="360" y="655"/>
			<point x="321" y="655" type="curve" smooth="yes"/>
			<point x="286" y="655"/>
			<point x="251" y="635"/>
			<point x="221" y="587" type="curve"/>
			<point x="224" y="603"/>
			<point x="224" y="626"/>
			<point x="223" y="642" type="curve" smooth="yes"/>
			<point x="216" y="765" type="line"/>
			<point x="181" y="762" type="line"/>
			<point x="193" y="596" type="line" smooth="yes"/>
			<point x="196" y="563"/>
			<point x="193" y="538"/>
			<point x="183" y="518" type="curve"/>
			<point x="126" y="522" type="line"/>
			<point x="149" y="481" type="line"/>
		</contour>
		<contour>
			<point x="215" y="519" type="curve"/>
			<point x="253" y="593"/>
			<point x="283" y="618"/>
			<point x="316" y="618" type="curve" smooth="yes"/>
			<point x="340" y="618"/>
			<point x="352" y="602"/>
			<point x="352" y="585" type="curve" smooth="yes"/>
			<point x="352" y="559"/>
			<point x="326" y="519"/>
		</contour>
		<component base="arReh"/>
	</outline>
	<anchor name="aboveAR" x="240" y="800"/>
	<anchor name="belowAR" x="195" y="-330"/>
</glyph>
<glyph name="arTehMarbuta" format="2">
	<advance width="427"/>
	<outline>
		<contour>
			<point x="242" y="550" type="curve" smooth="yes"/>
			<point x="266" y="550"/>
			<point x="282" y="566"/>
			<point x="282" y="592" type="curve" smooth="yes"/>
			<point x="282" y="616"/>
			<point x="266" y="633"/>
			<point x="242" y="633" type="curve" smooth="yes"/>
			<point x="219" y="633"/>
			<point x="204" y="616"/>
			<point x="204" y="592" type="curve" smooth="yes"/>
			<point x="204" y="566"/>
			<point x="219" y="550"/>
		</contour>
		<contour>
			<point x="128" y="550" type="curve" smooth="yes"/>
			<point x="151" y="550"/>
			<point x="168" y="566"/>
			<point x="168" y="592" type="curve" smooth="yes"/>
			<point x="168" y="616"/>
			<point x="151" y="633"/>
			<point x="128" y="633" type="curve" smooth="yes"/>
			<point x="105" y="633"/>
			<point x="88" y="616"/>
			<point x="88" y="592" type="curve" smooth="yes"/>
			<point x="88" y="566"/>
			<point x="105" y="550"/>
		</contour>
		<component base="arHeh"/>
	</outline>
	<anchor name="aboveAR" x="180" y="715"/>
	<anchor name="belowAR" x="215" y="-180"/>
</glyph>
<glyph name="arYeh.i" format="2">
	<advance width="271"/>
	<outline>
		<contour>
			<point x="182" y="-150" type="curve" smooth="yes"/>
			<point x="159" y="-150"/>
			<point x="144" y="-167"/>
			<point x="144" y="-191" type="curve" smooth="yes"/>
			<point x="144" y="-217"/>
			<point x="159" y="-233"/>
			<point x="182" y="-233" type="curve" smooth="yes"/>
			<point x="206" y="-233"/>
			<point x="222" y="-217"/>
			<point x="222" y="-191" type="curve" smooth="yes"/>
			<point x="222" y="-167"/>
			<point x="206" y="-150"/>
		</contour>
		<contour>
			<point x="68" y="-150" type="curve" smooth="yes"/>
			<point x="45" y="-150"/>
			<point x="28" y="-167"/>
			<point x="28" y="-191" type="curve" smooth="yes"/>
			<point x="28" y="-217"/>
			<point x="45" y="-233"/>
			<point x="68" y="-233" type="curve" smooth="yes"/>
			<point x="91" y="-233"/>
			<point x="108" y="-217"/>
			<point x="108" y="-191" type="curve" smooth="yes"/>
			<point x="108" y="-167"/>
			<point x="91" y="-150"/>
		</contour>
		<contour>
			<point x="0" y="0" type="curve" smooth="yes"/>
			<point x="19" y="0" type="line" smooth="yes"/>
			<point x="136" y="0"/>
			<point x="173" y="21"/>
			<point x="201" y="46" type="curve"/>
			<point x="206" y="63"/>
			<point x="207" y="83"/>
			<point x="207" y="103" type="curve" smooth="yes"/>
			<point x="207" y="206"/>
			<point x="161" y="324"/>
			<point x="138" y="367" type="curve"/>
			<point x="94" y="344" type="line"/>
			<point x="129" y="283"/>
			<point x="164" y="204"/>
			<point x="168" y="101" type="curve" smooth="yes"/>
			<point x="168" y="93"/>
			<point x="168" y="84"/>
			<point x="167" y="76" type="curve"/>
			<point x="140" y="59"/>
			<point x="94" y="50"/>
			<point x="14" y="50" type="curve" smooth="yes"/>
			<point x="0" y="50" type="line" smooth="yes"/>
			<point x="-23" y="50"/>
			<point x="-30" y="36"/>
			<point x="-30" y="26" type="curve" smooth="yes"/>
			<point x="-30" y="13"/>
			<point x="-23" y="0"/>
		</contour>
	</outline>
	<anchor name="aboveAR" x="70" y="565"/>
	<anchor name="belowAR" x="130" y="-315"/>
</glyph>
<glyph name="arYehBarree.fa" format="2">
	<advance width="484"/>
	<outline>
		<contour>
			<point x="484" y="0" type="curve" smooth="yes"/>
			<point x="508" y="0"/>
			<point x="514" y="15"/>
			<point x="514" y="25" type="curve" smooth="yes"/>
			<point x="514" y="38"/>
			<point x="507" y="50"/>
			<point x="484" y="50" type="curve" smooth="yes"/>
			<point x="415" y="51"/>
			<point x="372" y="50"/>
			<point x="294" y="50" type="curve" smooth="yes"/>
			<point x="194" y="50"/>
			<point x="77" y="26"/>
			<point x="39" y="-41" type="curve" smooth="yes"/>
			<point x="26" y="-64"/>
			<point x="20" y="-88"/>
			<point x="20" y="-112" type="curve" smooth="yes"/>
			<point x="20" y="-195"/>
			<point x="86" y="-238"/>
			<point x="233" y="-238" type="curve" smooth="yes"/>
			<point x="320" y="-238"/>
			<point x="421" y="-231"/>
			<point x="479" y="-223" type="curve"/>
			<point x="501" y="-176" type="line"/>
			<point x="427" y="-183"/>
			<point x="320" y="-189"/>
			<point x="247" y="-189" type="curve" smooth="yes"/>
			<point x="101" y="-189"/>
			<point x="58" y="-164"/>
			<point x="58" y="-108" type="curve" smooth="yes"/>
			<point x="58" y="-30"/>
			<point x="172" y="0"/>
			<point x="290" y="0" type="curve" smooth="yes"/>
			<point x="363" y="0"/>
			<point x="424" y="0"/>
		</contour>
	</outline>
	<anchor name="aboveAR" x="262" y="255"/>
	<anchor name="belowAR" x="317" y="-360"/>
</glyph>
<glyph name="arYehBarreeHamza.f" format="2">
	<advance width="254"/>
	<outline>
		<contour>
			<point x="216" y="204" type="curve" smooth="yes"/>
			<point x="270" y="204" type="line"/>
			<point x="285" y="241" type="line"/>
			<point x="228" y="241" type="line" smooth="yes"/>
			<point x="176" y="241"/>
			<point x="133" y="263"/>
			<point x="133" y="300" type="curve" smooth="yes"/>
			<point x="133" y="317"/>
			<point x="150" y="340"/>
			<point x="187" y="340" type="curve" smooth="yes"/>
			<point x="216" y="340"/>
			<point x="241" y="330"/>
			<point x="257" y="318" type="curve"/>
			<point x="270" y="352" type="line"/>
			<point x="258" y="364"/>
			<point x="233" y="377"/>
			<point x="194" y="377" type="curve" smooth="yes"/>
			<point x="141" y="377"/>
			<point x="99" y="345"/>
			<point x="99" y="297" type="curve" smooth="yes"/>
			<point x="99" y="263"/>
			<point x="123" y="243"/>
			<point x="136" y="234" type="curve"/>
			<point x="120" y="234"/>
			<point x="96" y="227"/>
			<point x="89" y="223" type="curve"/>
			<point x="83" y="188" type="line"/>
			<point x="123" y="204"/>
			<point x="191" y="204"/>
		</contour>
		<component base="arYehBarree.f"/>
	</outline>
	<anchor name="belowAR" x="180" y="-360"/>
	<anchor name="aboveAR" x="175" y="395"/>
</glyph>
<glyph name="arYehBarreeHamza.fa" format="2">
	<advance width="484"/>
	<outline>
		<contour>
			<point x="331" y="204" type="curve" smooth="yes"/>
			<point x="385" y="204" type="line"/>
			<point x="400" y="241" type="line"/>
			<point x="343" y="241" type="line" smooth="yes"/>
			<point x="291" y="241"/>
			<point x="248" y="263"/>
			<point x="248" y="300" type="curve" smooth="yes"/>
			<point x="248" y="317"/>
			<point x="265" y="340"/>
			<point x="302" y="340" type="curve" smooth="yes"/>
			<point x="331" y="340"/>
			<point x="356" y="330"/>
			<point x="372" y="318" type="curve"/>
			<point x="385" y="352" type="line"/>
			<point x="373" y="364"/>
			<point x="348" y="377"/>
			<point x="309" y="377" type="curve" smooth="yes"/>
			<point x="256" y="377"/>
			<point x="214" y="345"/>
			<point x="214" y="297" type="curve" smooth="yes"/>
			<point x="214" y="263"/>
			<point x="238" y="243"/>
			<point x="251" y="234" type="curve"/>
			<point x="235" y="234"/>
			<point x="211" y="227"/>
			<point x="204" y="223" type="curve"/>
			<point x="198" y="188" type="line"/>
			<point x="238" y="204"/>
			<point x="306" y="204"/>
		</contour>
		<component base="arYehBarree.fa"/>
	</outline>
	<anchor name="aboveAR" x="290" y="395"/>
	<anchor name="belowAR" x="317" y="-360"/>
</glyph>
<glyph name="arZain" format="2">
	<advance width="453"/>
	<outline>
		<contour>
			<point x="249" y="490" type="curve" smooth="yes"/>
			<point x="273" y="490"/>
			<point x="289" y="507"/>
			<point x="289" y="533" type="curve" smooth="yes"/>
			<point x="289" y="556"/>
			<point x="273" y="574"/>
			<point x="250" y="574" type="curve" smooth="yes"/>
			<point x="226" y="574"/>
			<point x="210" y="556"/>
			<point x="210" y="533" type="curve" smooth="yes"/>
			<point x="210" y="507"/>
			<point x="226" y="490"/>
		</contour>
		<component base="arReh"/>
	</outline>
	<anchor name="aboveAR" x="245" y="655"/>
	<anchor name="belowAR" x="195" y="-330"/>
</glyph>
<glyph name="dotlessi" format="2">
	<advance width="209"/>
	<outline>
		<contour>
			<point x="81" y="0" type="line"/>
			<point x="128" y="0" type="line"/>
			<point x="128" y="480" type="line"/>
			<point x="81" y="480" type="line"/>
		</contour>
	</outline>
	<anchor name="aboveLC" x="104" y="515"/>
	<anchor name="belowLC" x="104" y="-30"/>
	<anchor name="baseLC" x="96" y="0"/>
</glyph>
<glyph name="iacute" format="2">
	<advance width="209"/>
	<outline>
		<contour>
			<point x="62" y="550" type="line"/>
			<point x="105" y="550" type="line"/>
			<point x="221" y="688" type="line"/>
			<point x="158" y="688" type="line"/>
		</contour>
		<component base="dotlessi"/>
	</outline>
</glyph>
<glyph name="icircumflex" format="2">
	<advance width="209"/>
	<outline>
		<contour>
			<point x="-20" y="550" type="line"/>
			<point x="25" y="550" type="line"/>
			<point x="102" y="647" type="line"/>
			<point x="104" y="647" type="line"/>
			<point x="182" y="550" type="line"/>
			<point x="230" y="550" type="line"/>
			<point x="121" y="686" type="line"/>
			<point x="86" y="686" type="line"/>
		</contour>
		<component base="dotlessi"/>
	</outline>
</glyph>
<glyph name="idieresis" format="2">
	<advance width="209"/>
	<outline>
		<contour>
			<point x="20" y="578" type="curve" smooth="yes"/>
			<point x="43" y="578"/>
			<point x="57" y="597"/>
			<point x="57" y="617" type="curve" smooth="yes"/>
			<point x="57" y="638"/>
			<point x="42" y="656"/>
			<point x="21" y="656" type="curve" smooth="yes"/>
			<point x="-1" y="656"/>
			<point x="-17" y="637"/>
			<point x="-17" y="617" type="curve" smooth="yes"/>
			<point x="-17" y="597"/>
			<point x="-3" y="578"/>
		</contour>
		<contour>
			<point x="189" y="578" type="curve" smooth="yes"/>
			<point x="213" y="578"/>
			<point x="227" y="597"/>
			<point x="227" y="617" type="curve" smooth="yes"/>
			<point x="227" y="638"/>
			<point x="211" y="656"/>
			<point x="190" y="656" type="curve" smooth="yes"/>
			<point x="169" y="656"/>
			<point x="152" y="637"/>
			<point x="152" y="617" type="curve" smooth="yes"/>
			<point x="152" y="597"/>
			<point x="166" y="578"/>
		</contour>
		<component base="dotlessi"/>
	</outline>
</glyph>
<glyph name="igrave" format="2">
	<advance width="209"/>
	<outline>
		<contour>
			<point x="91" y="550" type="line"/>
			<point x="136" y="550" type="line"/>
			<point x="41" y="688" type="line"/>
			<point x="-23" y="688" type="line"/>
		</contour>
		<component base="dotlessi"/>
	</outline>
</glyph>
